<svg viewBox="0 0 146 132" fill="none" xmlns="http://www.w3.org/2000/svg">
	<g clip-path="url(#clip0_3_10)">
		<path d="M97.7689 16.3437C88.5689 -13.2563 48.2689 4.01035 29.2689 16.3437C-2.23115 34.8436 -9.73115 92.3438 13.7689 117.344C37.2689 142.344 69.7689 109.844 92.7689 126.844C115.769 143.844 171.769 107.344 131.769 79.8438C91.7689 52.3438 109.269 53.3437 97.7689 16.3437Z" fill="#E5E5E5" />
		<path d="M81.86 66.4488C80.6944 66.0413 80.2071 65.7915 80.2071 65.3029C80.2071 64.4321 81.1073 64.2015 81.5838 64.2015C82.4977 64.2015 82.6852 64.5723 82.6852 65.1288V65.1722C82.6852 65.5724 83.0097 65.8971 83.4094 65.8971H83.596C83.9958 65.8971 84.3202 65.5731 84.3205 65.1729L84.3216 63.9161C84.3216 63.713 84.2365 63.519 84.0871 63.3818C83.6326 62.9648 83.0434 62.7333 82.2937 62.6783V61.8539C82.2937 61.4537 81.969 61.1294 81.5695 61.1294H81.3949C80.9952 61.1294 80.6705 61.4537 80.6705 61.8539V62.7357C79.577 63.0376 78.5407 64.0352 78.5407 65.361C78.5407 66.9424 79.9351 67.4196 81.1656 67.8406C82.4412 68.2777 82.9748 68.5616 82.9748 69.1867C82.9748 70.0905 82.0364 70.3317 81.482 70.3317C80.9217 70.3317 80.2286 70.1718 80.0412 69.9084C79.9593 69.7911 79.9041 69.5631 79.8772 69.2298C79.8463 68.8536 79.5324 68.5637 79.1552 68.5637H79.008C78.8145 68.5637 78.6297 68.6408 78.4932 68.7785C78.3573 68.9155 78.2817 69.101 78.2835 69.2943L78.2948 70.7193C78.2971 71.0424 78.5128 71.3237 78.8237 71.411C78.855 71.42 78.8968 71.4295 78.9391 71.4386L78.9735 71.446C79.6195 71.6264 80.2038 71.7825 80.6709 71.8417V73.0413C80.6709 73.4411 80.9956 73.7655 81.3952 73.7655H81.5699C81.9695 73.7655 82.294 73.4411 82.294 73.0413V71.8153C83.4983 71.5622 84.6417 70.5641 84.6417 69.1575C84.6411 67.4223 83.099 66.8827 81.86 66.4488Z" fill="#B11515" />
		<path d="M119.282 43.0479V29.6157C115.481 31.2817 108.332 33.665 105.004 33.8543C101.676 34.0437 86.0396 31.5883 81.8033 32.6486C78.3939 33.502 59.6736 47.5897 54.0895 51.4745C45.1746 57.6768 53.064 58.6709 56.8072 57.2362C60.5738 55.7926 72.7125 49.012 72.7125 49.012C72.6741 50.3857 72.8818 52.3303 74.1104 54.43C74.1104 54.43 75.4999 56.3778 77.165 58.2846C73.572 59.9227 71.0681 63.5469 71.0681 67.7463C71.0681 71.3135 72.8749 74.4661 75.6213 76.339H57.6556C56.6608 76.339 55.8541 77.1455 55.8541 78.1403V105.814C55.8541 106.81 56.6608 107.616 57.6556 107.616H105.269C106.263 107.616 107.07 106.81 107.07 105.814V78.1403C107.07 77.1455 106.263 76.339 105.269 76.339H87.303C90.0491 74.4663 91.8561 71.3137 91.8561 67.7463C91.8561 65.1392 90.889 62.7552 89.2977 60.9287C89.2786 60.9128 89.2618 60.8954 89.2458 60.8778C91.8423 59.5837 94.5715 57.2649 101.179 54.5623C112.308 50.0103 116.078 44.8406 119.282 43.0479ZM88.621 53.5862C86.5353 55.0586 85.1119 56.4967 84.2816 57.744C83.8135 57.6119 83.3323 57.5118 82.8403 57.4457C82.4102 56.0535 81.6713 54.2222 80.5456 51.7973C80.5456 51.7973 80.0288 50.5819 80.1992 49.1285C80.6241 47.5045 82.0907 45.7629 86.2348 45.228C93.2128 44.3276 94.2031 47.8554 91.0497 51.5283C90.3768 52.2256 89.5641 52.9205 88.621 53.5862ZM89.6032 80.632C90.593 80.632 91.3986 81.437 91.3986 82.4272C91.3986 83.4169 90.5934 84.2223 89.6032 84.2223H73.321C72.3312 84.2223 71.526 83.4169 71.526 82.4272C71.526 81.4373 72.3312 80.632 73.321 80.632H89.6032ZM81.4621 75.4024C77.2403 75.4024 73.8055 71.9681 73.8055 67.7461C73.8055 63.5243 77.2403 60.0898 81.4621 60.0898C82.0849 60.0898 82.6897 60.1662 83.2695 60.3073C83.2686 61.5208 84.213 62.213 85.7703 62.0592C86.0095 62.0357 86.2415 62.0025 86.4683 61.9604C88.0894 63.3657 89.1182 65.4374 89.1182 67.7461C89.1184 71.9681 85.6839 75.4024 81.4621 75.4024Z" fill="#B11515" />
	</g>
	<defs>
		<clipPath id="clip0_3_10">
			<rect width="146" height="132" fill="white" />
		</clipPath>
	</defs>
</svg>
