<svg viewBox="0 0 150 131" fill="none" xmlns="http://www.w3.org/2000/svg">
	<path d="M1.33225 16.726C4.42739 7.67526 12.4578 3.26128 20.5386 1.50732C28.1819 -0.15165 35.7792 2.98474 43.126 5.66711C50.9489 8.52326 60.4581 10.4084 68.8781 8.45253C78.6657 6.17896 87.8437 -2.03372 96.8401 2.44174C106.821 7.407 117.292 20.9241 120.364 51.6419C125.98 107.803 57.1256 153.888 39.2705 118.552C36.6125 113.292 36.915 107.157 36.9529 101.263C37.0395 87.7705 33.7895 68.7724 20.3638 60.1416C6.89991 51.4863 -3.84697 31.8708 1.33225 16.726Z" fill="#E5E5E5" />
	<g clip-path="url(#clip0_3_55)">
		<path fill-rule="evenodd" clip-rule="evenodd" d="M60 58.8339H78.186V91.2388H60V58.8339ZM121.26 29.825C122.271 27.5439 123.384 25.3802 124.724 23.5538C127.427 19.8351 134.041 15.3609 138.083 19.6957C141.702 23.5685 138.633 27.808 134.326 29.825H144.082C144.836 29.825 145.547 30.1404 146.03 30.6465C146.536 31.1526 146.851 31.8421 146.851 32.5975V37.8639C146.851 38.6194 146.536 39.3308 146.03 39.8149C145.576 40.2697 144.976 40.5704 144.302 40.6218V65.4058C149.429 65.8679 152.197 71.7064 147.869 75.9825C137.688 83.3979 127.251 89.5005 116.572 94.4294C108.816 99.153 101.06 98.9916 93.3105 94.4294L81.8555 88.5176V61.4377H94.021C95.0171 61.6138 96.0132 61.8632 97.0093 62.1712V40.6364C96.3135 40.5924 95.6909 40.2917 95.2148 39.8296C94.7095 39.3235 94.3945 38.634 94.3945 37.8786V32.6122C94.3945 31.8567 94.7095 31.1453 95.2148 30.6612C95.7202 30.1551 96.4087 29.8397 97.1631 29.8397H107.095C102.803 27.8226 99.7339 23.5832 103.337 19.7104C107.38 15.3609 113.987 19.8498 116.697 23.5685C118.037 25.4095 119.15 27.5733 120.161 29.8397H121.245L121.26 29.825ZM133.997 69.3006H121.699C123.926 70.7675 124.395 73.7381 121.289 75.8652C117.979 78.3003 113.606 78.1609 109.124 77.7575C106.033 77.6035 105.901 81.7623 109.124 81.777C110.244 81.865 111.46 81.6009 112.522 81.6009C118.118 81.5936 122.717 80.5227 125.537 76.0999L126.951 72.7919L133.997 69.3006ZM99.2944 62.9854C101.917 64.0196 104.531 65.4132 107.153 66.9828H117.056V56.8462H99.2944V62.9854ZM138.662 66.9828L141.013 65.8166C141.35 65.7066 141.687 65.6185 142.017 65.5452V56.8462H142.002H124.482V66.9828H138.662ZM130.085 29.825C139.951 25.4462 136.677 18.0674 130.43 21.6321C128.965 22.4683 127.742 24.0306 126.636 25.5855C125.596 27.0525 124.666 28.5928 123.977 29.825H130.085ZM111.328 29.825C101.462 25.4462 104.736 18.0674 110.984 21.6321C112.449 22.4683 113.672 24.0306 114.778 25.5855C115.818 27.0525 116.748 28.5928 117.437 29.825H111.328ZM99.2944 50.685H117.056V39.5289H99.2944V50.685ZM124.468 50.685H141.98V39.5289H124.468V50.685Z" fill="#B11515" />
	</g>
	<defs>
		<clipPath id="clip0_3_55">
			<rect width="90" height="80" fill="white" transform="translate(60 17.9136)" />
		</clipPath>
	</defs>
</svg>
