<svg viewBox="0 0 142 124" fill="none" xmlns="http://www.w3.org/2000/svg">
	<g clip-path="url(#clip0_3_29)">
		<path d="M64.8063 3.70138C50.1829 -8.40431 40.8898 12.0259 37.9999 24.228C36.6665 33.5613 29.9999 54.328 13.9999 62.728C-4.47796 72.4289 -7.59143 117.126 28.3178 123.48C34.5248 124.578 40.656 122.081 46.1927 119.068C59.1293 112.028 79.14 105.628 94.5 115.228C118.5 130.228 151 117.228 139.5 68.728C137.28 54.728 116 38.728 99 32.228C86.4843 27.4426 73.8556 14.3858 67.8946 7.00841C66.9452 5.83342 65.97 4.66467 64.8063 3.70138Z" fill="#E5E5E5" />
		<path d="M118.152 24.4144C117.388 24.4144 116.656 24.7177 116.116 25.2576C115.576 25.7975 115.273 26.5297 115.273 27.2932V27.299L112.394 21.5356C111.63 21.5356 110.898 21.8389 110.358 22.3788C109.818 22.9187 109.515 23.6509 109.515 24.4144V25.8941L106.636 24.1266C105.873 24.1266 105.141 24.4299 104.601 24.9697C104.061 25.5096 103.758 26.2418 103.758 27.0053V31.0759L102.606 41.7275H118.2L118.152 24.4144Z" fill="#838383" />
		<path d="M130.674 39.6764C129.084 38.9728 126.812 39.9159 125.205 42.1959C124.149 43.6929 123.838 45.8244 122.451 46.0466C121.922 46.1307 121.03 45.6862 121.03 44.4379V26.1818C121.03 26.1818 121.03 23.8788 118.727 23.8788C116.424 23.8788 116.424 26.1818 116.424 26.1818V39.5774C116.424 39.544 115.273 39.5037 115.273 39.483V23.303C115.273 23.303 115.273 21 112.97 21C110.667 21 110.667 23.303 110.667 23.303V39.4853C110.667 39.5048 109.515 39.5325 109.515 39.5647V25.8939C109.515 25.8939 109.515 23.5909 107.212 23.5909C104.909 23.5909 104.909 25.8939 104.909 25.8939V40.4468C104.909 40.5827 103.758 40.7358 103.758 40.9051V31.0758C103.758 31.0758 103.758 28.7727 101.455 28.7727C99.1516 28.7727 99.1516 31.0758 99.1516 31.0758V48.6364C99.1516 56.2675 105.339 62.4545 112.97 62.4545C118.468 62.4545 122.251 59.4629 124.365 56.3607C126.158 53.7295 126.678 50.997 126.788 50.1713C126.788 50.1713 126.93 48.4682 128.119 46.8722C129.254 45.3374 130.455 43.8522 131.718 42.4205C132.083 42.0082 132.437 40.456 130.674 39.6764Z" fill="#B11515" />
		<path d="M121.536 45.7244C121.194 45.4181 121.107 45.0887 121.056 44.7939C118.877 45.0922 115.923 45.7025 113.655 47.9203C110.712 50.7979 110.21 53.9082 110.234 55.989C110.253 57.6667 111.169 58.4613 111.437 55.9752C111.773 52.8592 114.033 46.6905 121.552 46.0952C121.584 46.0929 121.998 46.0675 122.232 46.0549C122.232 46.0549 121.827 45.9858 121.536 45.7244Z" fill="#838383" />
		<path d="M132.586 86.0606C132.586 85.2971 132.282 84.5649 131.743 84.025C131.203 83.4851 130.47 83.1818 129.707 83.1818H129.701L135.465 80.303C135.465 79.5395 135.161 78.8073 134.621 78.2674C134.081 77.7275 133.349 77.4242 132.586 77.4242H131.106L132.874 74.5454C132.874 73.7819 132.57 73.0497 132.03 72.5098C131.491 71.97 130.758 71.6667 129.995 71.6667H125.924L115.273 70.5151V86.109L132.586 86.0606Z" fill="#838383" />
		<path d="M117.324 98.5833C118.027 96.993 117.084 94.7211 114.804 93.1136C113.307 92.0576 111.176 91.7467 110.953 90.3603C110.869 89.8306 111.314 88.9393 112.562 88.9393H130.818C130.818 88.9393 133.121 88.9393 133.121 86.6363C133.121 84.3333 130.818 84.3333 130.818 84.3333H117.423C117.456 84.3333 117.496 83.1818 117.517 83.1818H133.697C133.697 83.1818 136 83.1818 136 80.8787C136 78.5757 133.697 78.5757 133.697 78.5757H117.515C117.495 78.5757 117.468 77.4242 117.435 77.4242H131.106C131.106 77.4242 133.409 77.4242 133.409 75.1212C133.409 72.8181 131.106 72.8181 131.106 72.8181H116.553C116.417 72.8181 116.264 71.6666 116.095 71.6666H125.924C125.924 71.6666 128.227 71.6666 128.227 69.3636C128.227 67.0605 125.924 67.0605 125.924 67.0605H108.364C100.733 67.0605 94.5454 73.2476 94.5454 80.8787C94.5454 86.3772 97.537 90.1599 100.639 92.2741C103.27 94.067 106.003 94.5875 106.829 94.6969C106.829 94.6969 108.532 94.8385 110.128 96.0281C111.663 97.1632 113.148 98.3638 114.58 99.6265C114.992 99.9916 116.544 100.346 117.324 98.5833Z" fill="#B11515" />
		<path d="M111.276 89.445C111.582 89.103 111.911 89.0167 112.206 88.9648C111.908 86.7862 111.298 83.8325 109.08 81.5641C106.202 78.6208 103.092 78.1187 101.011 78.1429C99.3334 78.1625 98.5388 79.0779 101.025 79.3462C104.141 79.6825 110.31 81.9417 110.905 89.4611C110.907 89.4934 110.933 89.9068 110.945 90.1417C110.945 90.1417 111.014 89.7364 111.276 89.445Z" fill="#838383" />
		<path d="M55.4141 38.8482C55.4141 39.6117 55.7174 40.3439 56.2573 40.8838C56.7972 41.4237 57.5294 41.727 58.2929 41.727H58.2987L52.5354 44.6058C52.5354 45.3693 52.8387 46.1015 53.3785 46.6414C53.9184 47.1813 54.6506 47.4846 55.4141 47.4846H56.8938L55.1263 50.3633C55.1263 51.1268 55.4296 51.8591 55.9694 52.399C56.5093 52.9388 57.2416 53.2421 58.0051 53.2421H62.0757L72.7272 54.3936V38.7998L55.4141 38.8482Z" fill="#838383" />
		<path d="M70.6764 26.3257C69.9728 27.9159 70.9159 30.1879 73.1959 31.7954C74.6929 32.8513 76.8244 33.1623 77.0466 34.5487C77.1307 35.0784 76.6862 35.9696 75.4379 35.9696H57.1818C57.1818 35.9696 54.8788 35.9696 54.8788 38.2727C54.8788 40.5757 57.1818 40.5757 57.1818 40.5757H70.5774C70.544 40.5757 70.5037 41.7272 70.483 41.7272H54.303C54.303 41.7272 52 41.7272 52 44.0303C52 46.3333 54.303 46.3333 54.303 46.3333H70.4853C70.5048 46.3333 70.5325 47.4848 70.5647 47.4848H56.8939C56.8939 47.4848 54.5909 47.4848 54.5909 49.7878C54.5909 52.0909 56.8939 52.0909 56.8939 52.0909H71.4468C71.5827 52.0909 71.7358 53.2424 71.9051 53.2424H62.0758C62.0758 53.2424 59.7727 53.2424 59.7727 55.5454C59.7727 57.8484 62.0758 57.8484 62.0758 57.8484H79.6364C87.2675 57.8484 93.4545 51.6613 93.4545 44.0303C93.4545 38.5318 90.4629 34.749 87.3607 32.6349C84.7295 30.8419 81.997 30.3215 81.1713 30.2121C81.1713 30.2121 79.4682 30.0704 77.8722 28.8809C76.3374 27.7458 74.8522 26.5452 73.4205 25.2824C73.0082 24.9174 71.456 24.5627 70.6764 26.3257Z" fill="#B11515" />
		<path d="M76.7241 35.4638C76.4178 35.8058 76.0885 35.8921 75.7937 35.9439C76.0919 38.1226 76.7022 41.0762 78.92 43.3447C81.7977 46.288 84.9079 46.7901 86.9887 46.7659C88.6665 46.7463 89.461 45.8308 86.9749 45.5625C83.8589 45.2263 77.6902 42.967 77.0949 35.4476C77.0926 35.4154 77.0672 35.002 77.0546 34.7671C77.0546 34.7671 76.9855 35.1724 76.7241 35.4638Z" fill="#838383" />
		<path d="M69.8484 100.495C70.6119 100.495 71.3441 100.191 71.884 99.6515C72.4239 99.1116 72.7272 98.3794 72.7272 97.6159V97.6101L75.606 103.374C76.3695 103.374 77.1017 103.07 77.6416 102.53C78.1814 101.99 78.4847 101.258 78.4847 100.495V99.0149L81.3635 100.783C82.127 100.783 82.8593 100.479 83.3991 99.9393C83.939 99.3995 84.2423 98.6672 84.2423 97.9037V93.8331L85.3938 83.1816H69.8L69.8484 100.495Z" fill="#838383" />
		<path d="M57.3257 85.2328C58.9159 85.9363 61.1878 84.9932 62.7954 82.7132C63.8513 81.2163 64.1622 79.0848 65.5486 78.8626C66.0783 78.7785 66.9696 79.223 66.9696 80.4712V98.7274C66.9696 98.7274 66.9696 101.03 69.2726 101.03C71.5757 101.03 71.5757 98.7274 71.5757 98.7274V85.3318C71.5757 85.3652 72.7272 85.4055 72.7272 85.4262V101.606C72.7272 101.606 72.7272 103.909 75.0302 103.909C77.3332 103.909 77.3332 101.606 77.3332 101.606V85.4239C77.3332 85.4043 78.4847 85.3767 78.4847 85.3445V99.0152C78.4847 99.0152 78.4847 101.318 80.7878 101.318C83.0908 101.318 83.0908 99.0152 83.0908 99.0152V84.4624C83.0908 84.3265 84.2423 84.1734 84.2423 84.0041V93.8334C84.2423 93.8334 84.2423 96.1365 86.5454 96.1365C88.8484 96.1365 88.8484 93.8334 88.8484 93.8334V76.2728C88.8484 68.6417 82.6613 62.4546 75.0302 62.4546C69.5317 62.4546 65.749 65.4463 63.6348 68.5485C61.8419 71.1797 61.3214 73.9122 61.212 74.7378C61.212 74.7378 61.0704 76.4409 59.8809 78.0369C58.7457 79.5717 57.5451 81.057 56.2824 82.4887C55.9174 82.9009 55.5627 84.4532 57.3257 85.2328Z" fill="#B11515" />
		<path d="M66.464 79.1847C66.806 79.491 66.8924 79.8203 66.9442 80.1151C69.1228 79.8169 72.0765 79.2066 74.345 76.9888C77.2882 74.1111 77.7903 71.0009 77.7661 68.9201C77.7465 67.2423 76.8311 66.4478 76.5628 68.9339C76.2265 72.0499 73.9673 78.2186 66.4479 78.8139C66.4156 78.8162 66.0022 78.8416 65.7673 78.8542C65.7673 78.8542 66.1727 78.9233 66.464 79.1847Z" fill="#838383" />
	</g>
	<defs>
		<clipPath id="clip0_3_29">
			<rect width="142" height="124" fill="white" />
		</clipPath>
	</defs>
</svg>
